<mxfile host="app.diagrams.net" modified="2024-01-04T07:15:38.183Z" agent="Mozilla/5.0 (Macintosh; Intel Mac OS X 10_15_7) AppleWebKit/537.36 (KHTML, like Gecko) Chrome/120.0.0.0 Safari/537.36" etag="4cLb9HnI2UjGvqQ1pdcg" version="22.1.16" type="github">
  <diagram name="第 1 页" id="lxQmo-yqOYhOvAbWUm7a">
    <mxGraphModel dx="1434" dy="760" grid="1" gridSize="10" guides="1" tooltips="1" connect="1" arrows="1" fold="1" page="1" pageScale="1" pageWidth="827" pageHeight="1169" math="0" shadow="0">
      <root>
        <mxCell id="0" />
        <mxCell id="1" parent="0" />
        <mxCell id="QLO38sdaXtMqSBq5mBr8-8" style="edgeStyle=orthogonalEdgeStyle;rounded=0;orthogonalLoop=1;jettySize=auto;html=1;entryX=0;entryY=0.5;entryDx=0;entryDy=0;" parent="1" source="QLO38sdaXtMqSBq5mBr8-1" target="QLO38sdaXtMqSBq5mBr8-3" edge="1">
          <mxGeometry relative="1" as="geometry" />
        </mxCell>
        <mxCell id="QLO38sdaXtMqSBq5mBr8-5" value="&lt;font style=&quot;font-size: 24px;&quot;&gt;图像真伪识别&lt;/font&gt;" style="text;html=1;strokeColor=none;fillColor=none;align=center;verticalAlign=middle;whiteSpace=wrap;rounded=0;" parent="1" vertex="1">
          <mxGeometry x="260" y="200" width="180" height="20" as="geometry" />
        </mxCell>
        <mxCell id="QLO38sdaXtMqSBq5mBr8-6" value="&lt;font style=&quot;font-size: 24px;&quot;&gt;图像质量识别&lt;/font&gt;" style="text;html=1;strokeColor=none;fillColor=none;align=center;verticalAlign=middle;whiteSpace=wrap;rounded=0;" parent="1" vertex="1">
          <mxGeometry x="510" y="200" width="180" height="20" as="geometry" />
        </mxCell>
        <mxCell id="QLO38sdaXtMqSBq5mBr8-7" value="&lt;font style=&quot;font-size: 24px;&quot;&gt;ocr流程&lt;/font&gt;" style="text;html=1;strokeColor=none;fillColor=none;align=center;verticalAlign=middle;whiteSpace=wrap;rounded=0;" parent="1" vertex="1">
          <mxGeometry x="870" y="190" width="140" height="20" as="geometry" />
        </mxCell>
        <mxCell id="QLO38sdaXtMqSBq5mBr8-16" value="" style="rounded=1;whiteSpace=wrap;html=1;" parent="1" vertex="1">
          <mxGeometry x="750" y="240" width="420" height="150" as="geometry" />
        </mxCell>
        <mxCell id="QLO38sdaXtMqSBq5mBr8-18" value="" style="group" parent="1" vertex="1" connectable="0">
          <mxGeometry x="780" y="260" width="150" height="110" as="geometry" />
        </mxCell>
        <mxCell id="QLO38sdaXtMqSBq5mBr8-4" value="" style="rounded=1;whiteSpace=wrap;html=1;" parent="QLO38sdaXtMqSBq5mBr8-18" vertex="1">
          <mxGeometry width="150" height="109.99999999999999" as="geometry" />
        </mxCell>
        <mxCell id="QLO38sdaXtMqSBq5mBr8-13" value="&lt;font style=&quot;font-size: 14px;&quot;&gt;图像增强：&lt;br&gt;&lt;font color=&quot;#cc00cc&quot;&gt;1、切边增强&lt;br&gt;2、摩尔纹消除&lt;/font&gt;&lt;br&gt;3、去底纹&lt;br&gt;4、去手写体&lt;br&gt;&lt;/font&gt;" style="text;html=1;strokeColor=none;fillColor=none;align=left;verticalAlign=middle;whiteSpace=wrap;rounded=0;" parent="QLO38sdaXtMqSBq5mBr8-18" vertex="1">
          <mxGeometry x="19.75" y="10" width="110.49999999999999" height="89.99999999999999" as="geometry" />
        </mxCell>
        <mxCell id="QLO38sdaXtMqSBq5mBr8-20" value="" style="group" parent="1" vertex="1" connectable="0">
          <mxGeometry x="980" y="260" width="150" height="110" as="geometry" />
        </mxCell>
        <mxCell id="QLO38sdaXtMqSBq5mBr8-21" value="" style="rounded=1;whiteSpace=wrap;html=1;" parent="QLO38sdaXtMqSBq5mBr8-20" vertex="1">
          <mxGeometry width="150" height="109.99999999999999" as="geometry" />
        </mxCell>
        <mxCell id="QLO38sdaXtMqSBq5mBr8-22" value="&lt;font style=&quot;font-size: 14px;&quot;&gt;内容检测、识别&lt;br&gt;&lt;/font&gt;" style="text;html=1;strokeColor=none;fillColor=none;align=left;verticalAlign=middle;whiteSpace=wrap;rounded=0;" parent="QLO38sdaXtMqSBq5mBr8-20" vertex="1">
          <mxGeometry x="19.75" y="10" width="110.49999999999999" height="89.99999999999999" as="geometry" />
        </mxCell>
        <mxCell id="QLO38sdaXtMqSBq5mBr8-23" style="edgeStyle=orthogonalEdgeStyle;rounded=0;orthogonalLoop=1;jettySize=auto;html=1;entryX=0;entryY=0.5;entryDx=0;entryDy=0;" parent="1" source="QLO38sdaXtMqSBq5mBr8-4" target="QLO38sdaXtMqSBq5mBr8-21" edge="1">
          <mxGeometry relative="1" as="geometry" />
        </mxCell>
        <mxCell id="QLO38sdaXtMqSBq5mBr8-25" value="" style="group" parent="1" vertex="1" connectable="0">
          <mxGeometry x="520" y="250" width="160" height="130" as="geometry" />
        </mxCell>
        <mxCell id="QLO38sdaXtMqSBq5mBr8-3" value="" style="rounded=1;whiteSpace=wrap;html=1;" parent="QLO38sdaXtMqSBq5mBr8-25" vertex="1">
          <mxGeometry width="160" height="130" as="geometry" />
        </mxCell>
        <mxCell id="QLO38sdaXtMqSBq5mBr8-12" value="&lt;font style=&quot;font-size: 14px;&quot;&gt;&lt;font color=&quot;#ff0000&quot;&gt;1、低质（不清晰）&lt;/font&gt;&lt;br&gt;2、反光、阴影&lt;br&gt;3、遮挡&lt;br&gt;&lt;/font&gt;" style="text;html=1;strokeColor=none;fillColor=none;align=left;verticalAlign=middle;whiteSpace=wrap;rounded=0;" parent="QLO38sdaXtMqSBq5mBr8-25" vertex="1">
          <mxGeometry x="19.5" y="20" width="130.5" height="90" as="geometry" />
        </mxCell>
        <mxCell id="QLO38sdaXtMqSBq5mBr8-26" value="" style="group" parent="1" vertex="1" connectable="0">
          <mxGeometry x="260" y="250" width="180" height="130" as="geometry" />
        </mxCell>
        <mxCell id="QLO38sdaXtMqSBq5mBr8-1" value="" style="rounded=1;whiteSpace=wrap;html=1;" parent="QLO38sdaXtMqSBq5mBr8-26" vertex="1">
          <mxGeometry width="160" height="130" as="geometry" />
        </mxCell>
        <mxCell id="QLO38sdaXtMqSBq5mBr8-10" value="&lt;font style=&quot;font-size: 14px;&quot;&gt;1、PS&lt;br&gt;&lt;font color=&quot;#ff0000&quot;&gt;2、拍屏、截屏&lt;br&gt;3、无公章&lt;/font&gt;&lt;br&gt;&lt;/font&gt;" style="text;html=1;strokeColor=none;fillColor=none;align=left;verticalAlign=middle;whiteSpace=wrap;rounded=0;" parent="QLO38sdaXtMqSBq5mBr8-26" vertex="1">
          <mxGeometry x="19" y="17" width="161" height="90" as="geometry" />
        </mxCell>
        <mxCell id="QLO38sdaXtMqSBq5mBr8-28" style="edgeStyle=orthogonalEdgeStyle;rounded=0;orthogonalLoop=1;jettySize=auto;html=1;entryX=0;entryY=0.5;entryDx=0;entryDy=0;" parent="1" source="QLO38sdaXtMqSBq5mBr8-3" target="QLO38sdaXtMqSBq5mBr8-16" edge="1">
          <mxGeometry relative="1" as="geometry" />
        </mxCell>
      </root>
    </mxGraphModel>
  </diagram>
</mxfile>
